<svg xmlns="http://www.w3.org/2000/svg" width="600" height="599" viewBox="99.5 99.5 600 599" xmlns:v="https://vecta.io/nano"><path fill="#fff" d="M100 100h600v600H100z"/><path d="M474.927 597.919c-.001-.045-13.501-.082-30.001-.082h-89.854c-16.5 0-30 13.5-30 30V646c0 16.5 13.5 30 30 30h89.854c16.5 0 30-13.5 30.001-30v-17.999-30.082z"/><path d="M325.071 626.5l.001-359.897c0-.874.048-1.736.142-2.584h-57.128c.094.848.142 1.709.142 2.583v129.187c0 12.843-10.411 23.254-23.253 23.254s-23.253-10.411-23.253-23.254l-.001-129.187c0-.873.048-1.734.142-2.583h-44.064V395.79c0 12.842-10.411 23.254-23.254 23.254s-23.253-10.412-23.253-23.254V163.253c0-12.842 10.411-23.253 23.253-23.253h490.91a23.25 23.25 0 0 1 16.441 6.811c4.361 4.361 6.813 10.275 6.813 16.442l-.002 232.536c0 12.841-10.412 23.253-23.254 23.253h0c-12.842 0-23.254-10.411-23.254-23.253v-131.77h-44.064a23.46 23.46 0 0 1 .143 2.584V395.79c0 12.842-10.412 23.253-23.254 23.253s-23.254-10.411-23.254-23.253V266.603c0-.874.049-1.736.143-2.584h-57.127a23.44 23.44 0 0 1 .143 2.583l-.003 359.898H325.071zM177.799 217.511h444.402v-31.004H177.799v31.004z"/></svg>