<?xml version="1.0" encoding="utf-8"?>
<!-- Generator: Adobe Illustrator 16.0.1, SVG Export Plug-In . SVG Version: 6.00 Build 0)  -->
<!DOCTYPE svg PUBLIC "-//W3C//DTD SVG 1.1//EN" "http://www.w3.org/Graphics/SVG/1.1/DTD/svg11.dtd">
<svg version="1.1" id="Layer_1" xmlns:v="https://vecta.io/nano"
	 xmlns="http://www.w3.org/2000/svg" xmlns:xlink="http://www.w3.org/1999/xlink" x="0px" y="0px" width="607.333px"
	 height="608.332px" viewBox="-0.833 -3 607.333 608.332" enable-background="new -0.833 -3 607.333 608.332" xml:space="preserve">
<g>
	<path fill="#FFFFFF" d="M-1.5-3v609h609V-3H-1.5z M568.707,287.289c0,12.841-10.412,23.253-23.254,23.253
		s-23.254-10.411-23.254-23.253v-131.77h-44.064c0.096,0.858,0.143,1.721,0.143,2.584V287.29c0,12.842-10.412,23.253-23.254,23.253
		s-23.254-10.411-23.254-23.253V158.103c0-0.874,0.049-1.736,0.143-2.584h-57.127c0.096,0.858,0.143,1.72,0.143,2.583
		l-0.002,331.317v30.082V537.5c0,16.5-13.5,30-30,30h-89.854c-16.5,0-30-13.5-30-30v-18.163c0-0.448,0.015-0.894,0.034-1.337h-0.035
		l0.001-359.897c0-0.874,0.048-1.736,0.142-2.584h-57.128c0.094,0.848,0.142,1.709,0.142,2.583v129.187
		c0,12.843-10.411,23.254-23.253,23.254c-12.842,0-23.253-10.411-23.253-23.254l-0.001-129.187c0-0.873,0.048-1.734,0.142-2.583
		H77.798V287.29c0,12.842-10.411,23.254-23.254,23.254c-12.843,0-23.253-10.412-23.253-23.254V54.753
		c0-12.842,10.411-23.253,23.253-23.253h490.911c6.166,0,12.08,2.45,16.441,6.811c4.359,4.361,6.813,10.275,6.813,16.442
		L568.707,287.289z"/>
	<rect x="77.798" y="78.007" fill="#FFFFFF" width="444.403" height="31.004"/>
</g>
</svg>
